<svg xmlns="http://www.w3.org/2000/svg" viewBox="0 0 512 512"><circle cx="221.867" cy="256" r="8.533"/><circle cx="119.467" cy="153.6" r="8.533"/><circle cx="221.867" cy="153.6" r="8.533"/><circle cx="170.667" cy="204.8" r="8.533"/><path d="M426.667 204.8h8.533v34.133h-17.067c-4.71 0-8.533 3.823-8.533 8.533s3.823 8.533 8.533 8.533h51.2c4.71 0 8.533-3.823 8.533-8.533s-3.823-8.533-8.533-8.533h-17.067V204.8h8.533c14.114 0 25.6-11.486 25.6-25.6V76.8c0-14.114-11.486-25.6-25.6-25.6h-8.533v-8.533c0-4.71-3.823-8.533-8.533-8.533s-8.533 3.823-8.533 8.533V51.2h-8.533c-14.114 0-25.6 11.486-25.6 25.6v102.4c0 14.114 11.486 25.6 25.6 25.6zm-8.534-128c0-4.702 3.831-8.533 8.533-8.533H460.8c4.702 0 8.533 3.831 8.533 8.533v102.4c0 4.702-3.831 8.533-8.533 8.533h-34.133c-4.702 0-8.533-3.831-8.533-8.533V76.8zM42.667 196.267c4.71 0 8.533-3.823 8.533-8.533v-25.6c0-42.342 34.458-76.8 76.8-76.8h85.333c42.342 0 76.8 34.458 76.8 76.8v25.6c0 4.71 3.823 8.533 8.533 8.533s8.533-3.823 8.533-8.533v-25.6c0-51.755-42.112-93.867-93.867-93.867H128c-51.755 0-93.867 42.112-93.867 93.867v25.6c0 4.71 3.823 8.533 8.534 8.533z"/><circle cx="443.733" cy="409.6" r="8.533"/><circle cx="443.733" cy="324.267" r="8.533"/><path d="M503.467 273.067H384c-4.71 0-8.533 3.823-8.533 8.533v187.733c0 4.71 3.823 8.533 8.533 8.533s8.533-3.823 8.533-8.533V460.8h102.4v8.533c0 4.71 3.823 8.533 8.533 8.533s8.533-3.823 8.533-8.533V281.6c.001-4.71-3.822-8.533-8.532-8.533zm-8.534 170.666h-102.4v-68.267h102.4v68.267zm0-85.333h-102.4v-68.267h102.4V358.4z"/><circle cx="119.467" cy="256" r="8.533"/><path d="M315.733 204.8c-14.114 0-25.6 11.486-25.6 25.6v51.2c0 14.114-11.486 25.6-25.6 25.6H76.8c-14.114 0-25.6-11.486-25.6-25.6v-51.2c0-14.114-11.486-25.6-25.6-25.6S0 216.286 0 230.4v68.267c0 51.755 42.112 93.867 93.867 93.867h153.6c51.755 0 93.867-42.112 93.867-93.867V230.4c-.001-14.114-11.487-25.6-25.601-25.6zm8.534 93.867c0 42.342-34.458 76.8-76.8 76.8h-153.6c-42.342 0-76.8-34.458-76.8-76.8V230.4c0-4.702 3.831-8.533 8.533-8.533s8.533 3.831 8.533 8.533v51.2c0 23.526 19.14 42.667 42.667 42.667h187.733c23.526 0 42.667-19.14 42.667-42.667v-51.2c0-4.702 3.831-8.533 8.533-8.533s8.533 3.831 8.533 8.533v68.267zM170.667 452.267c-4.71 0-8.533 3.823-8.533 8.533v8.533c0 4.71 3.823 8.533 8.533 8.533s8.533-3.823 8.533-8.533V460.8c0-4.71-3.823-8.533-8.533-8.533z"/><path d="M244.053 462.507l-68.267-51.2c-.137-.102-.299-.12-.444-.213-.503-.333-1.033-.538-1.587-.751-.495-.196-.956-.41-1.468-.512-.538-.102-1.067-.077-1.621-.077-.538 0-1.067-.026-1.604.077-.521.102-.99.324-1.485.512-.546.213-1.075.418-1.579.751-.137.094-.307.111-.452.213l-68.267 51.2c-3.772 2.825-4.531 8.175-1.707 11.947 1.672 2.236 4.241 3.413 6.835 3.413 1.775 0 3.575-.555 5.111-1.707l63.147-47.36 63.147 47.36c1.536 1.152 3.337 1.707 5.111 1.707 2.594 0 5.163-1.178 6.835-3.413 2.827-3.772 2.067-9.123-1.705-11.947z"/></svg>