<svg xmlns="http://www.w3.org/2000/svg" viewBox="0 0 60 60"><path d="M59 25v-9h-8v9h-6.791l-.295-2H49V0H11v23h4.931l-.304 2H0v10h1v25h5V39c0-2.206 1.794-4 4-4h4.109l-.042.276c-.217 1.171.096 2.367.858 3.283.762.915 1.881 1.44 3.072 1.44H27v3h2v2h-2v1.204l-12.225 2.821c-.03.007-.051.027-.079.036-.065.021-.123.049-.182.082-.056.032-.108.064-.156.105-.048.041-.088.087-.128.137-.041.051-.077.101-.107.159-.029.055-.048.111-.066.172-.02.066-.034.13-.04.2-.003.03-.017.055-.017.085v1.051c-2.244.252-4 2.139-4 4.449 0 2.481 2.019 4.5 4.5 4.5s4.5-2.019 4.5-4.5c0-1.953-1.258-3.602-3-4.224v-.481l11-2.538v.329l-2.422 2.422c-.027-.001-.051-.008-.078-.008-2.481 0-4.5 2.019-4.5 4.5s2.019 4.5 4.5 4.5 4.5-2.019 4.5-4.5c0-1.648-.9-3.077-2.225-3.861L28.414 50h3.172l1.639 1.639C31.9 52.423 31 53.852 31 55.5c0 2.481 2.019 4.5 4.5 4.5s4.5-2.019 4.5-4.5-2.019-4.5-4.5-4.5c-.027 0-.051.007-.078.008L33 48.586v-.329l11 2.538v.481c-1.742.621-3 2.271-3 4.224 0 2.481 2.019 4.5 4.5 4.5s4.5-2.019 4.5-4.5c0-2.31-1.756-4.197-4-4.449V50c0-.03-.014-.055-.017-.084-.006-.07-.02-.134-.04-.2-.018-.06-.037-.117-.066-.172-.03-.058-.066-.108-.107-.159-.04-.05-.079-.095-.128-.137-.048-.041-.1-.073-.156-.105-.058-.033-.117-.061-.182-.082-.028-.009-.05-.029-.079-.036L33 46.204V45h-2v-2h2v-3h8.792c1.191 0 2.311-.525 3.072-1.44.762-.916 1.075-2.112.864-3.247L45.682 35H50c2.206 0 4 1.794 4 4v21h5V35h1V25h-1zM17 55.5c0 1.379-1.122 2.5-2.5 2.5S12 56.879 12 55.5s1.122-2.5 2.5-2.5 2.5 1.121 2.5 2.5zm7.5 2.5c-1.378 0-2.5-1.121-2.5-2.5s1.122-2.5 2.5-2.5 2.5 1.121 2.5 2.5-1.122 2.5-2.5 2.5zM38 55.5c0 1.379-1.122 2.5-2.5 2.5S33 56.879 33 55.5s1.122-2.5 2.5-2.5 2.5 1.121 2.5 2.5zm10 0c0 1.379-1.122 2.5-2.5 2.5S43 56.879 43 55.5s1.122-2.5 2.5-2.5 2.5 1.121 2.5 2.5zM29 47h2v1h-2v-1zm27-29h1v7h-1v-7zm-3 0h1v7h-1v-7zm-6 3h-3.38l-.441-3H47v3zM13 2h34v14h-4.117l-.992-6.73c-.039-.209-.099-.413-.171-.612-.022-.061-.047-.119-.071-.178-.058-.141-.124-.278-.198-.412-.03-.054-.058-.109-.091-.162-.108-.176-.225-.346-.36-.504-.005-.006-.011-.01-.016-.015-.167-.193-.355-.365-.555-.522-.068-.053-.14-.098-.211-.147-.147-.101-.299-.193-.459-.275-.083-.042-.165-.081-.25-.117-.168-.071-.342-.127-.52-.175-.079-.021-.154-.047-.234-.063-.257-.054-.522-.088-.794-.088H21.946c-.272 0-.536.034-.794.086-.082.016-.159.043-.239.065-.175.047-.345.102-.51.172-.091.038-.178.08-.265.125-.148.076-.288.161-.425.255-.084.057-.169.111-.249.174-.148.118-.283.251-.413.389-.046.048-.101.085-.144.136-.145.17-.269.355-.383.546-.014.024-.027.049-.041.074-.093.163-.174.333-.243.51-.017.042-.034.084-.05.127-.074.207-.137.42-.178.643L16.994 16H13V2zm0 16h3.69l-.456 3H13v-3zm-3 15c-3.309 0-6 2.691-6 6v19H3V33H2v-6h13.324l-.911 6H10zm21 8h-2v-1h2v1zm12.756-5.36c.108.585-.048 1.183-.428 1.641-.381.457-.94.72-1.535.72H17.998c-.595 0-1.154-.263-1.535-.72-.38-.458-.537-1.056-.423-1.672l.594-3.912L17.65 25l.304-2h.001l.964-6.354 1.065-7.013c.028-.154.081-.3.143-.442.016-.036.033-.071.05-.105.068-.133.147-.261.244-.376.007-.009.015-.017.023-.026.082-.093.172-.176.267-.252.035-.028.074-.052.111-.077.072-.049.146-.094.223-.133.042-.022.085-.042.129-.06.083-.035.169-.063.256-.086.04-.011.079-.024.12-.033.13-.026.262-.043.396-.043h16.015c.135 0 .268.017.397.043.039.008.076.021.114.031.091.024.181.053.268.09.038.016.075.033.111.052.092.046.181.099.266.159.021.015.043.028.064.044.108.083.209.176.299.281.108.126.197.267.269.411.007.014.014.029.021.043.069.146.121.295.148.442L40.862 16l1.031 7 .295 2h-.001l1.474 10 .095.64zM58 33h-1v25h-1V39c0-3.309-2.691-6-6-6h-4.612l-.221-1.499L44.504 27H58v6z"/><path d="M12 29H5c-.552 0-1 .447-1 1s.448 1 1 1h7c.552 0 1-.447 1-1s-.448-1-1-1zM55 29h-7c-.553 0-1 .447-1 1s.447 1 1 1h7c.553 0 1-.447 1-1s-.447-1-1-1z"/></svg>