<svg xmlns="http://www.w3.org/2000/svg" viewBox="0 0 60 60"><path d="M21.293 12.707c.195.196.451.293.707.293s.512-.098.707-.293c.391-.391.391-1.023 0-1.414L21.414 10l1.293-1.293c.391-.391.391-1.023 0-1.414s-1.023-.391-1.414 0L20 8.586l-1.293-1.293c-.391-.391-1.023-.391-1.414 0s-.391 1.023 0 1.414L18.586 10l-1.293 1.293c-.391.391-.391 1.023 0 1.414.195.196.451.293.707.293s.512-.098.707-.293L20 11.414l1.293 1.293zM37.293 12.707c.195.196.451.293.707.293s.512-.098.707-.293L40 11.414l1.293 1.293c.195.196.451.293.707.293s.512-.098.707-.293c.391-.391.391-1.023 0-1.414L41.414 10l1.293-1.293c.391-.391.391-1.023 0-1.414s-1.023-.391-1.414 0L40 8.586l-1.293-1.293c-.391-.391-1.023-.391-1.414 0s-.391 1.023 0 1.414L38.586 10l-1.293 1.293c-.391.391-.391 1.024 0 1.414zM15.293 29.707c.195.196.451.293.707.293s.512-.098.707-.293L18 28.414l1.293 1.293c.195.196.451.293.707.293s.512-.098.707-.293c.391-.391.391-1.023 0-1.414L19.414 27l1.293-1.293c.391-.391.391-1.023 0-1.414s-1.023-.391-1.414 0L18 25.586l-1.293-1.293c-.391-.391-1.023-.391-1.414 0s-.391 1.023 0 1.414L16.586 27l-1.293 1.293c-.391.391-.391 1.024 0 1.414zM39.293 29.707c.195.196.451.293.707.293s.512-.098.707-.293L42 28.414l1.293 1.293c.195.196.451.293.707.293s.512-.098.707-.293c.391-.391.391-1.023 0-1.414L43.414 27l1.293-1.293c.391-.391.391-1.023 0-1.414s-1.023-.391-1.414 0L42 25.586l-1.293-1.293c-.391-.391-1.023-.391-1.414 0s-.391 1.023 0 1.414L40.586 27l-1.293 1.293c-.391.391-.391 1.024 0 1.414z"/><path d="M56.5 23h-.975c-1.297 0-2.518.33-3.584.91-.278-1.648-1.705-2.91-3.43-2.91H41v-2h3.914C48.821 19 52 15.821 52 11.914V5.72C52 2.566 49.435 0 46.28 0H13.72C10.565 0 8 2.566 8 5.72v6.194C8 15.821 11.179 19 15.086 19H19v2h-7.511c-1.725 0-3.152 1.262-3.431 2.91-1.066-.58-2.287-.91-3.583-.91H3.5C1.57 23 0 24.571 0 26.5S1.57 30 3.5 30h1.21c.16 0 .29.13.29.29V34l.018.336c-.003.059-.018.115-.018.175v2.794C5 43.754 10.246 49 16.695 49H27v2.518l-16 3.277v.816c0 1.292.565 2.513 1.552 3.349.986.836 2.283 1.194 3.6.972L30 57.022l13.891 2.917c.241.041.483.061.723.061 1.031 0 2.034-.363 2.834-1.04.987-.836 1.552-2.056 1.552-3.349v-.816l-16-3.277V49h10.305C49.754 49 55 43.754 55 37.305V30.29c0-.16.13-.29.29-.29h1.21c1.93 0 3.5-1.57 3.5-3.5S58.43 23 56.5 23zM10 11.914V5.72C10 3.669 11.669 2 13.72 2h32.56C48.331 2 50 3.669 50 5.72v6.194C50 14.719 47.719 17 44.914 17H15.086C12.281 17 10 14.719 10 11.914zM21 19h18v2H21v-2zm-11 5.49c0-.821.668-1.49 1.489-1.49H48.51c.822 0 1.49.669 1.49 1.49v.933c-.049.053-.091.11-.139.164-.074.085-.148.17-.218.259-.089.11-.172.224-.253.339-.051.072-.103.144-.152.218-.091.138-.175.279-.257.422-.034.059-.068.118-.101.178-.086.16-.163.324-.236.49-.023.051-.047.102-.069.154-.072.174-.136.352-.195.531-.017.051-.036.101-.052.153-.054.179-.099.36-.14.543-.013.058-.029.114-.041.172-.036.184-.062.37-.085.557-.007.06-.019.118-.025.177-.023.246-.037.495-.037.746V31H12v-.475c0-.251-.014-.5-.038-.746-.006-.06-.018-.118-.025-.177-.023-.187-.049-.374-.085-.557-.012-.058-.028-.115-.041-.172-.041-.183-.086-.365-.14-.543-.016-.052-.035-.101-.052-.153-.059-.179-.122-.357-.195-.531-.022-.052-.046-.102-.069-.154-.073-.166-.151-.329-.236-.49-.032-.06-.067-.118-.101-.178-.081-.143-.166-.284-.257-.422-.049-.074-.101-.146-.152-.218-.082-.115-.165-.228-.253-.339-.07-.088-.144-.174-.218-.259-.047-.054-.09-.111-.139-.164v-.932zM50 33h.426c-.789 1.214-4.224 5-7.121 5h-26.61c-2.897 0-6.332-3.786-7.121-5H50zM4.71 28H3.5c-.827 0-1.5-.673-1.5-1.5S2.673 25 3.5 25h.975c1.491 0 2.843.596 3.838 1.559.263.254.496.531.7.823.008.011.017.021.025.033.199.29.367.598.506.917.008.019.018.037.026.056.137.325.243.664.315 1.012.002.011.004.023.007.034.07.356.108.721.108 1.092V31H8.511c-.259 0-.509.032-.752.086-.064.014-.122.04-.185.058-.178.05-.352.106-.518.182-.018.008-.038.01-.056.019V30.29C7 29.028 5.973 28 4.71 28zm42.156 28.4c-.139.397-.382.755-.711 1.034-.536.455-1.248.648-1.895.542L30 54.978l-14.219 2.989c-.697.115-1.401-.08-1.937-.534-.329-.279-.572-.636-.711-1.034L29 53.15V49h2v4.149L46.866 56.4zM53 37.305C53 42.651 48.65 47 43.305 47h-26.61C11.35 47 7 42.651 7 37.305v-2.794c0-.102.011-.202.03-.298l.002-.01c.033-.161.097-.308.177-.445.01-.017.018-.036.029-.053.081-.127.181-.238.295-.335.004-.004.009-.007.013-.011.592 1.75 5.242 6.641 9.149 6.641h26.609c3.907 0 8.558-4.891 9.15-6.641.004.004.009.007.013.011.113.097.214.208.295.335.011.017.019.036.029.053.079.137.144.284.177.445l.002.006c.019.098.03.199.03.302v2.794zM56.5 28h-1.21C54.027 28 53 29.028 53 30.29v1.055c-.018-.008-.038-.011-.056-.02-.165-.076-.34-.132-.518-.182-.063-.018-.121-.044-.185-.058-.243-.052-.493-.085-.752-.085H50v-.475c0-.371.038-.736.109-1.091.002-.011.004-.023.007-.034.072-.348.178-.686.315-1.012.008-.019.018-.037.026-.056.139-.32.307-.627.506-.917.008-.011.017-.022.025-.033.204-.292.437-.569.7-.823.994-.963 2.347-1.559 3.837-1.559h.975c.827 0 1.5.673 1.5 1.5s-.673 1.5-1.5 1.5z"/></svg>