<svg xmlns="http://www.w3.org/2000/svg" viewBox="0 0 315 315"><path d="M280.619 148.418c0-33.514-13.553-70.804-36.253-99.75C220.11 17.739 188.449 0 157.501 0c-30.949 0-62.61 17.739-86.866 48.668-22.701 28.946-36.254 66.236-36.254 99.75 0 48.293 42.206 76.611 116.119 78.279v16.344c-35.626 1.212-71.155 11.642-77.86 30.559-8.796 2.554-15.25 10.669-15.25 20.276 0 11.647 9.477 21.124 21.124 21.124 11.647 0 21.124-9.477 21.124-21.124 0-8.265-4.782-15.416-11.715-18.885 2.838-3.205 8.379-6.899 17.651-10.245 12.297-4.439 28.043-7.121 44.926-7.704v16.927c-8.212 2.898-14.124 10.716-14.124 19.907 0 11.647 9.476 21.124 21.124 21.124s21.124-9.477 21.124-21.124c0-9.191-5.912-17.009-14.124-19.907v-16.924c32.637 1.115 55.48 9.887 62.612 17.929-6.951 3.462-11.751 10.624-11.751 18.902 0 11.647 9.477 21.124 21.125 21.124s21.124-9.477 21.124-21.124c0-9.604-6.449-17.718-15.241-20.273-6.674-18.927-42.113-29.355-77.869-30.563v-16.343c73.913-1.668 116.119-29.986 116.119-78.279zM78.514 301c-3.928 0-7.124-3.196-7.124-7.124 0-3.928 3.196-7.124 7.124-7.124 3.928 0 7.124 3.196 7.124 7.124 0 3.928-3.197 7.124-7.124 7.124zm157.972 0c-3.929 0-7.125-3.196-7.125-7.124 0-3.928 3.196-7.124 7.125-7.124 3.928 0 7.124 3.196 7.124 7.124 0 3.928-3.196 7.124-7.124 7.124zM48.381 148.418c0-30.486 12.438-64.546 33.269-91.11C103.235 29.785 130.882 14 157.501 14s54.265 15.785 75.849 43.308c20.832 26.565 33.27 60.624 33.27 91.11 0 20.023-9.057 35.751-26.918 46.746-18.717 11.522-47.142 17.612-82.2 17.612-35.06 0-63.485-6.09-82.202-17.612-17.862-10.995-26.919-26.723-26.919-46.746zM157.5 301c-3.928 0-7.124-3.196-7.124-7.124 0-3.928 3.196-7.124 7.124-7.124s7.124 3.196 7.124 7.124c0 3.928-3.196 7.124-7.124 7.124z"/><path d="M227.935 148.22c-1.781-3.43-6.007-4.768-9.439-2.987-21.677 11.256-41.629 16.728-60.996 16.728s-39.319-5.472-60.996-16.728c-3.43-1.782-7.656-.445-9.438 2.987-1.781 3.431-.444 7.656 2.987 9.439 23.718 12.315 45.78 18.302 67.447 18.302s43.73-5.986 67.447-18.302c3.432-1.783 4.769-6.009 2.988-9.439z"/></svg>